<svg width="512" height="512" viewBox="0 0 512 512" fill="none" xmlns="http://www.w3.org/2000/svg">
  <rect width="512" height="512" rx="112" fill="#1E3A8A"/>
  <path d="M256 128C185.31 128 128 185.31 128 256C128 326.69 185.31 384 256 384C326.69 384 384 326.69 384 256C384 185.31 326.69 128 256 128ZM256 160C308.9 160 352 203.1 352 256C352 308.9 308.9 352 256 352C203.1 352 160 308.9 160 256C160 203.1 203.1 160 256 160Z" fill="#F59E0B"/>
  <path d="M256 192C223.6 192 196 219.6 196 252C196 284.4 223.6 312 256 312C288.4 312 316 284.4 316 252C316 219.6 288.4 192 256 192ZM256 224C271.04 224 284 236.96 284 252C284 267.04 271.04 280 256 280C240.96 280 228 267.04 228 252C228 236.96 240.96 224 256 224Z" fill="white"/>
</svg>