<?xml version="1.0" encoding="UTF-8"?>
<svg width="512" height="512" viewBox="0 0 512 512" fill="none" xmlns="http://www.w3.org/2000/svg">
  <g clip-path="url(#clip0_1_2)">
    <path d="M437.019 74.981C388.667 26.629 324.38 0 256 0C187.619 0 123.332 26.629 74.98 74.981C26.629 123.333 0 187.62 0 256C0 324.38 26.629 388.667 74.98 437.019C123.332 485.371 187.619 512 256 512C324.38 512 388.667 485.371 437.019 437.019C485.371 388.667 512 324.38 512 256C512 187.62 485.371 123.333 437.019 74.981Z" fill="#1E3A8A" fill-opacity="0.1"/>
    <path d="M347.5 145H164.5C157.873 145 152.5 150.373 152.5 157V367C152.5 373.627 157.873 379 164.5 379H347.5C354.127 379 359.5 373.627 359.5 367V157C359.5 150.373 354.127 145 347.5 145Z" fill="#1E3A8A" fill-opacity="0.2"/>
    <path d="M329.5 163H182.5C175.873 163 170.5 168.373 170.5 175V349C170.5 355.627 175.873 361 182.5 361H329.5C336.127 361 341.5 355.627 341.5 349V175C341.5 168.373 336.127 163 329.5 163Z" fill="white"/>
    <path d="M288.5 285H223.5C216.873 285 211.5 290.373 211.5 297V349C211.5 355.627 216.873 361 223.5 361H288.5C295.127 361 300.5 355.627 300.5 349V297C300.5 290.373 295.127 285 288.5 285Z" fill="#1E3A8A" fill-opacity="0.1"/>
    <path d="M256 315C267.046 315 276 306.046 276 295C276 283.954 267.046 275 256 275C244.954 275 236 283.954 236 295C236 306.046 244.954 315 256 315Z" fill="#1E3A8A"/>
    <path d="M256 335C234.954 335 218 318.046 218 297C218 275.954 234.954 259 256 259C277.046 259 294 275.954 294 297C294 318.046 277.046 335 256 335ZM256 269C240.477 269 228 281.477 228 297C228 312.523 240.477 325 256 325C271.523 325 284 312.523 284 297C284 281.477 271.523 269 256 269Z" fill="#1E3A8A"/>
    <path d="M256 241C234.954 241 218 224.046 218 203C218 181.954 234.954 165 256 165C277.046 165 294 181.954 294 203C294 224.046 277.046 241 256 241ZM256 175C240.477 175 228 187.477 228 203C228 218.523 240.477 231 256 231C271.523 231 284 218.523 284 203C284 187.477 271.523 175 256 175Z" fill="#1E3A8A" fill-opacity="0.2"/>
    <path d="M379.5 187H359.5V227H379.5C386.127 227 391.5 221.627 391.5 215V199C391.5 192.373 386.127 187 379.5 187Z" fill="#1E3A8A" fill-opacity="0.3"/>
    <path d="M137.5 187H146.5C153.127 187 158.5 192.373 158.5 199V215C158.5 221.627 153.127 227 146.5 227H122.5C115.873 227 110.5 221.627 110.5 215V199C110.5 192.373 115.873 187 122.5 187H137.5Z" fill="#1E3A8A" fill-opacity="0.3"/>
    <path d="M188.5 177H182.5C175.873 177 170.5 182.373 170.5 189V217C170.5 223.627 175.873 229 182.5 229H188.5C195.127 229 200.5 223.627 200.5 217V189C200.5 182.373 195.127 177 188.5 177Z" fill="#1E3A8A" fill-opacity="0.1"/>
    <path d="M329.5 177H323.5C316.873 177 311.5 182.373 311.5 189V217C311.5 223.627 316.873 229 323.5 229H329.5C336.127 229 341.5 223.627 341.5 217V189C341.5 182.373 336.127 177 329.5 177Z" fill="#1E3A8A" fill-opacity="0.1"/>
    <path d="M329.5 309H323.5C316.873 309 311.5 314.373 311.5 321V349C311.5 355.627 316.873 361 323.5 361H329.5C336.127 361 341.5 355.627 341.5 349V321C341.5 314.373 336.127 309 329.5 309Z" fill="#1E3A8A" fill-opacity="0.1"/>
    <path d="M256 221C267.046 221 276 212.046 276 201C276 189.954 267.046 181 256 181C244.954 181 236 189.954 236 201C236 212.046 244.954 221 256 221Z" fill="#1E3A8A" fill-opacity="0.3"/>
  </g>
  <defs>
    <clipPath id="clip0_1_2">
      <rect width="512" height="512" fill="white"/>
    </clipPath>
  </defs>
</svg>