<?xml version="1.0" encoding="UTF-8"?>
<svg width="320" height="80" viewBox="0 0 320 80" fill="none" xmlns="http://www.w3.org/2000/svg">
  <path d="M20 15H50C55 15 60 20 60 25V55C60 60 55 65 50 65H20V15ZM30 25V55H45C47.5 55 50 52.5 50 50V30C50 27.5 47.5 25 45 25H30Z" fill="#1E3A8A"/>
  <path d="M65 15H75L90 40L105 15H115V65H105V35L90 60L75 35V65H65V15Z" fill="#1E3A8A"/>
  <path d="M120 15H140C145 15 150 20 150 25V55C150 60 145 65 140 65H120V15ZM130 25V55H140C142.5 55 145 52.5 145 50V30C145 27.5 142.5 25 140 25H130Z" fill="#1E3A8A"/>
  <path d="M155 15H195V25H165V35H185V45H165V55H195V65H155V15Z" fill="#D4AF37"/>
  <path d="M200 15H210V35H230V15H240V65H230V45H210V65H200V15Z" fill="#D4AF37"/>
  <path d="M245 15H285V25H255V35H275V45H255V55H285V65H245V15Z" fill="#D4AF37"/>
</svg>